<svg width="676" height="1076" xmlns="http://www.w3.org/2000/svg" xmlns:xlink="http://www.w3.org/1999/xlink" xml:space="preserve" overflow="hidden"><defs><clipPath id="clip0"><rect x="198" y="-99" width="676" height="1076"/></clipPath><clipPath id="clip1"><rect x="815" y="232" width="58" height="56"/></clipPath><clipPath id="clip2"><rect x="815" y="232" width="58" height="56"/></clipPath><clipPath id="clip3"><rect x="815" y="232" width="58" height="56"/></clipPath><clipPath id="clip4"><rect x="817" y="813" width="57" height="56"/></clipPath><clipPath id="clip5"><rect x="817" y="813" width="57" height="56"/></clipPath><clipPath id="clip6"><rect x="817" y="813" width="57" height="56"/></clipPath></defs><g clip-path="url(#clip0)" transform="translate(-198 99)"><g><g><g><path d="M37.7874 66.9384C37.5277 66.9384 37.2681 66.8886 37.012 66.7891 35.9413 66.3604 35.422 65.1457 35.847 64.0751 35.8773 64.0004 38.8064 56.5912 39.2902 48.8513 39.4823 45.7674 37.9777 43.4999 36.0694 40.6241 33.6915 37.0386 30.7321 32.5746 30.581 25.2206 30.4689 19.7056 32.459 14.7009 36.3361 10.7456 41.4012 5.57554 49.2995 2.61259 58.0087 2.61259 73.373 2.61259 81.0845 14.4537 81.0845 21.0839L81.0756 23.2839C81.0471 27.6892 81.0863 29.2809 82.0128 30.6752 82.0715 30.7642 87.8196 40.2097 86.9926 43.5052 86.3079 46.244 82.9803 46.068 80.7928 45.9613 80.695 45.9559 80.5865 45.9488 80.478 45.9453 80.2184 47.6241 79.9676 50.8165 79.9676 52.4936 79.9676 53.7812 79.9676 56.4596 78.0735 58.1101 76.9015 59.1345 75.3098 59.5168 73.3445 59.2394 71.1944 58.9442 69.0957 58.8819 67.6747 58.9086L67.3528 64.9608C67.2888 66.1132 66.2946 66.9865 65.1564 66.9367 64.004 66.8726 63.1183 65.8909 63.1805 64.7402L63.6056 56.7762C63.6617 55.7266 64.4888 54.882 65.537 54.8039 65.7024 54.7914 69.6382 54.5122 73.9172 55.1009 74.5984 55.1969 75.123 55.1418 75.3311 54.9586 75.7935 54.5567 75.7935 53.0023 75.7935 52.4918 75.7935 52.4083 75.8113 44.1045 77.3941 42.5146 78.2674 41.6467 79.4216 41.7089 81.008 41.7872 81.4562 41.8121 82.2263 41.853 82.806 41.8299 82.2334 39.8789 79.9569 35.1197 78.5377 32.9908 76.8535 30.4636 76.8677 27.9044 76.8979 23.2572L76.9068 21.0839C76.9068 16.0952 70.4154 6.79024 58.0087 6.79024 50.4164 6.79024 43.6048 9.29612 39.3204 13.6694 36.2472 16.8066 34.6679 20.7727 34.7586 25.137 34.8831 31.2799 37.2574 34.8582 39.5516 38.3174 41.6093 41.4208 43.7382 44.6292 43.459 49.1145 42.9325 57.5427 39.8575 65.3022 39.7277 65.6295 39.4085 66.4207 38.6406 66.9387 37.7874 66.9384Z" fill="#C59D72" transform="matrix(1.0101 0 0 1 198.07 -99)"/><path d="M57.2422 44.3535C55.1685 44.3535 53.2815 42.8898 52.5612 40.6632 52.4581 40.343 52.3674 40.0425 52.282 39.7473 51.9316 38.5397 51.6524 37.5882 49.9735 35.1766 48.2822 32.7436 47.9478 29.585 49.1199 27.1307 50.1105 25.0552 52.0348 23.7658 54.4002 23.5933 58.2915 23.307 60.2958 26.2806 60.8223 27.8919 61.1815 28.9875 60.5839 30.1666 59.4866 30.5241 58.4035 30.8886 57.2315 30.2911 56.8616 29.2151 56.7264 28.8398 56.1217 27.6625 54.7061 27.7567 53.8293 27.8225 53.2353 28.2049 52.8902 28.9288 52.362 30.0368 52.5683 31.5876 53.4042 32.7916 55.4726 35.7617 55.8887 37.1934 56.2925 38.5752 56.3672 38.8313 56.4436 39.0928 56.5343 39.372 56.7371 39.9998 57.0341 40.1777 57.2688 40.1741 57.3898 40.1616 57.5996 39.8575 57.6708 39.2422 57.8042 38.0986 58.8304 37.2645 59.9828 37.4068 61.1281 37.5366 61.9516 38.5735 61.8182 39.7188 61.523 42.2994 59.8974 44.1099 57.6797 44.3304 57.5338 44.3446 57.388 44.3535 57.2422 44.3535Z" fill="#C59D72" transform="matrix(1.0101 0 0 1 198.07 -99)"/></g></g></g><path d="M295.5-68.7242C295.5-84.0644 307.936-96.5001 323.276-96.5001L769.724-96.5001C785.064-96.5001 797.5-84.0644 797.5-68.7242L797.5 181.724C797.5 197.064 785.064 209.5 769.724 209.5L323.276 209.5C307.936 209.5 295.5 197.064 295.5 181.724Z" stroke="#8FAADC" stroke-width="1.33333" stroke-miterlimit="8" fill="#DAE3F3" fill-rule="evenodd"/><text font-family="KaiTi,KaiTi_MSFontService,Arial" font-weight="400" font-size="16" transform="translate(348.458 -58)">假如你现在是一个精通川渝方言的人，我现在给出的几个未经</text><text font-family="KaiTi,KaiTi_MSFontService,Arial" font-weight="400" font-size="16" transform="translate(324.458 -34)">过川渝方言数据训练的</text><text font-family="KaiTi,KaiTi_MSFontService,Arial" font-weight="400" font-size="16" transform="translate(484.458 -34)">ASR</text><text font-family="KaiTi,KaiTi_MSFontService,Arial" font-weight="400" font-size="16" transform="translate(508.458 -34)">识别的文本</text><text font-family="KaiTi,KaiTi_MSFontService,Arial" font-weight="400" font-size="16" transform="translate(588.458 -34)">，</text><text font-family="KaiTi,KaiTi_MSFontService,Arial" font-weight="400" font-size="16" transform="translate(604.458 -34)">请你结合这几个抄本生成</text><text font-family="KaiTi,KaiTi_MSFontService,Arial" font-weight="400" font-size="16" transform="translate(324.458 -10)">最终的结果，最终的结果保存字数不变，必须等于其中一个文本</text><text font-family="KaiTi,KaiTi_MSFontService,Arial" font-weight="400" font-size="16" transform="translate(324.458 14)">的字数</text><text font-family="KaiTi,KaiTi_MSFontService,Arial" font-weight="400" font-size="16" transform="translate(372.458 14)">，</text><text font-family="KaiTi,KaiTi_MSFontService,Arial" font-weight="400" font-size="16" transform="translate(388.458 14)">仅对你认为最符合川渝方言表达方式的文本进行不符合</text><text font-family="KaiTi,KaiTi_MSFontService,Arial" font-weight="400" font-size="16" transform="translate(324.458 38)">川渝方言表达方式的部分进行字级别的纠错，让最终结果更加符</text><text font-family="KaiTi,KaiTi_MSFontService,Arial" font-weight="400" font-size="16" transform="translate(324.458 62)">合川渝方言的表达方式，那么现在请你结合下面几个候选项的文</text><text font-family="KaiTi,KaiTi_MSFontService,Arial" font-weight="400" font-size="16" transform="translate(324.458 86)">本进行分析，给出你认为最符合川渝方言表达的修改后的结果，</text><text font-family="KaiTi,KaiTi_MSFontService,Arial" font-weight="400" font-size="16" transform="translate(324.458 110)">最终结果两边用</text><text font-family="KaiTi,KaiTi_MSFontService,Arial" font-weight="400" font-size="16" transform="translate(436.458 110)">|</text><text font-family="KaiTi,KaiTi_MSFontService,Arial" font-weight="400" font-size="16" transform="translate(444.458 110)">进行包围：</text><text font-family="KaiTi,KaiTi_MSFontService,Arial" font-weight="400" font-size="16" transform="translate(324.458 134)">文本</text><text font-family="KaiTi,KaiTi_MSFontService,Arial" font-weight="400" font-size="16" transform="translate(356.458 134)">1</text><text font-family="KaiTi,KaiTi_MSFontService,Arial" font-weight="400" font-size="16" transform="translate(364.458 134)">：这顿火锅吃的太巴氏了，瓜娃子，你觉得咋个样？</text><text font-family="KaiTi,KaiTi_MSFontService,Arial" font-weight="400" font-size="16" transform="translate(324.458 158)">文本</text><text font-family="KaiTi,KaiTi_MSFontService,Arial" font-weight="400" font-size="16" transform="translate(356.458 158)">2</text><text font-family="KaiTi,KaiTi_MSFontService,Arial" font-weight="400" font-size="16" transform="translate(364.458 158)">：这顿火锅吃的太八十了，挂娃子，你脚得咋个样？</text><text font-family="KaiTi,KaiTi_MSFontService,Arial" font-weight="400" font-size="16" transform="translate(324.458 182)">文本</text><text font-family="KaiTi,KaiTi_MSFontService,Arial" font-weight="400" font-size="16" transform="translate(356.458 182)">3</text><text font-family="KaiTi,KaiTi_MSFontService,Arial" font-weight="400" font-size="16" transform="translate(364.458 182)">：这顿火锅吃的太巴士了，挂瓦子，你教得咋个样？</text><g><g><g><path d="M15.1423 4.51138C15.1847 4.60563 15.2187 4.71554 15.2444 4.84122 15.2706 4.96685 15.2837 5.09774 15.2837 5.23386 15.2837 5.36997 15.2575 5.50599 15.2051 5.64211 15.1526 5.77826 15.0688 5.90916 14.9539 6.03475 14.8282 6.16045 14.7157 6.27033 14.6162 6.36455 14.5167 6.45879 14.4303 6.54256 14.357 6.61586 14.2733 6.69961 14.1947 6.77293 14.1214 6.83571L11.1845 3.89891C11.3101 3.78373 11.4593 3.64501 11.632 3.48267 11.8048 3.32039 11.9488 3.19219 12.064 3.09791 12.2106 2.98275 12.3624 2.90161 12.5195 2.85445 12.6765 2.80738 12.831 2.78642 12.9828 2.79167 13.1346 2.79694 13.2812 2.82049 13.4226 2.86235 13.5639 2.90422 13.6869 2.95131 13.7916 3.00371 14.0115 3.11898 14.255 3.32046 14.522 3.60835 14.7889 3.89623 14.9958 4.19731 15.1423 4.51138L15.1423 4.51138ZM2.90751 12.1755C2.9703 12.1127 3.11693 11.9635 3.34724 11.7279 3.57761 11.4923 3.86558 11.2018 4.21104 10.8563L5.35763 9.70985 6.62982 8.43772 10.0066 5.06107 12.9435 8.01362 9.56677 11.3902 8.31033 12.6624C7.8915 13.0707 7.51455 13.4451 7.1795 13.7853 6.84446 14.1256 6.56693 14.4056 6.34708 14.6255 6.12717 14.8454 5.99628 14.971 5.95442 15.0025 5.84978 15.0967 5.72928 15.1961 5.59323 15.3008 5.45713 15.4056 5.31579 15.4893 5.16915 15.5521 5.02262 15.6254 4.80792 15.7144 4.52518 15.8191 4.24251 15.9238 3.94672 16.0259 3.63782 16.1253 3.329 16.2249 3.03582 16.3112 2.75827 16.3846 2.48082 16.4577 2.27408 16.5049 2.13794 16.5258 1.85518 16.5573 1.66677 16.5154 1.57251 16.4002 1.47828 16.2851 1.45211 16.0914 1.49397 15.8191 1.51493 15.6725 1.5647 15.4606 1.64322 15.1831 1.72176 14.9056 1.80549 14.6177 1.89445 14.3193 1.98349 14.0209 2.06983 13.746 2.15364 13.4948 2.2374 13.2435 2.30541 13.0707 2.35779 12.9765 2.42063 12.83 2.49132 12.6964 2.56983 12.576 2.64838 12.4556 2.76097 12.3221 2.90751 12.1755L2.90751 12.1755ZM8.14446 15.1376 9.54898 15.1376 9.54898 16.5359 8.14446 16.5359 8.14446 15.1376ZM10.9981 15.1376 12.4026 15.1376 12.4026 16.5359 10.9981 16.5359 10.9981 15.1376ZM13.8631 15.1376 15.2676 15.1376 15.2676 16.5359 13.8631 16.5359 13.8631 15.1376Z" transform="matrix(1 0 0 1.05556 318 -79)"/></g></g></g><g clip-path="url(#clip1)"><g clip-path="url(#clip2)"><g clip-path="url(#clip3)"><path d="M11.9 13.65 4.9 13.65C4.55 13.65 4.2 13.65 3.85 14L0.35 20.65C-4.85723e-16 21 -4.85723e-16 21.7 0.35 22.05L15.75 49 23.45 49 34.65 39.55 11.9 13.65Z" fill="#615CED" transform="matrix(1.03056 0 0 1 815.032 232)"/><path d="M7.35 34.65 3.85 40.6C3.5 40.95 3.5 41.65 3.85 42L7.7 48.65C8.05 49 8.4 49 9.1 49L23.45 49 7.35 34.65ZM48.65 21.35 52.15 15.4C52.5 15.05 52.5 14.35 52.15 14L48.3 7.35C47.95 7 47.6 7 46.9 7L15.75 7 11.9 13.3 14.7 28 48.65 21.35Z" fill="#615CED" transform="matrix(1.03056 0 0 1 815.032 232)"/><path d="M32.55 7 29.05 1.05C29.05 0.35 28.35 0.35 28 0.35L20.3 0.35C19.95 0.35 19.25 0.7 19.25 1.05L15.75 7 11.9 13.3 32.55 7ZM23.45 49 26.95 54.95C27.3 55.3 27.65 55.65 28 55.65L35.7 55.65C36.05 55.65 36.75 55.3 36.75 54.95L52.5 28 48.65 21.35 34.65 16.45 23.45 49Z" fill="#615CED" transform="matrix(1.03056 0 0 1 815.032 232)"/><path d="M44.1 42.35 51.1 42.35C51.45 42.35 52.15 42 52.15 41.65L56 35C56.35 34.65 56.35 33.95 56 33.6L52.5 28 48.65 21.35 44.1 42.35Z" fill="#615CED" transform="matrix(1.03056 0 0 1 815.032 232)"/><path d="M24.15 47.95 9.1 47.95 12.95 41.3 20.65 41.3 5.25 15.05 12.95 15.05 28 41.3 24.15 47.95Z" fill="#FFFFFF" transform="matrix(1.03056 0 0 1 815.032 232)"/><path d="M12.6 15.05 20.3 1.75 24.15 8.4 20.3 14.7 50.75 14.7 46.9 21.35 16.45 21.35 12.6 15.05ZM46.9 21.35 54.6 34.65 46.9 34.65 43.05 28 28 54.25 24.15 47.6 39.2 21.35 46.9 21.35Z" fill="#FFFFFF" transform="matrix(1.03056 0 0 1 815.032 232)"/><path d="M28 41.3 39.2 21.35 16.45 21.35 28 41.3Z" fill="#605BEC" transform="matrix(1.03056 0 0 1 815.032 232)"/><path d="M28 41.3 12.6 15.05 13.3 13.65 28.7 39.9 28 41.3Z" fill="#605BEC" transform="matrix(1.03056 0 0 1 815.032 232)"/><path d="M16.45 21.35 46.9 21.35 47.6 22.75 17.5 22.75 16.45 21.35Z" fill="#605BEC" transform="matrix(1.03056 0 0 1 815.032 232)"/><path d="M39.55 21.35 24.5 47.6 23.1 47.6 38.15 21.35 39.55 21.35Z" fill="#605BEC" transform="matrix(1.03056 0 0 1 815.032 232)"/></g></g></g><path d="M295.5 252.667C295.5 242.634 303.634 234.5 313.667 234.5L783.333 234.5C793.366 234.5 801.5 242.634 801.5 252.667L801.5 325.333C801.5 335.366 793.366 343.5 783.333 343.5L313.667 343.5C303.634 343.5 295.5 335.366 295.5 325.333Z" stroke="#FFD966" stroke-width="1.33333" stroke-miterlimit="8" fill="#FFF2CC" fill-rule="evenodd"/><text font-family="Times New Roman,Times New Roman_MSFontService,Arial" font-weight="400" font-size="16" transform="translate(344.125 259)">response</text><text font-family="KaiTi,KaiTi_MSFontService,Arial" font-weight="400" font-size="16" transform="translate(400.125 259)">:</text><text font-family="KaiTi,KaiTi_MSFontService,Arial" font-weight="400" font-size="16" transform="translate(324.125 283)">“巴适”为正确方言词，“瓜娃子”为常用语，“你觉得”最贴近</text><text font-family="KaiTi,KaiTi_MSFontService,Arial" font-weight="400" font-size="16" transform="translate(324.125 307)">口语。选文本</text><text font-family="KaiTi,KaiTi_MSFontService,Arial" font-weight="400" font-size="16" transform="translate(420.125 307)">1</text><text font-family="KaiTi,KaiTi_MSFontService,Arial" font-weight="400" font-size="16" transform="translate(428.125 307)">微调。</text><text font-family="KaiTi,KaiTi_MSFontService,Arial" font-weight="400" font-size="16" transform="translate(324.125 331)">最终结果：</text><text font-family="KaiTi,KaiTi_MSFontService,Arial" font-weight="400" font-size="16" transform="translate(404.125 331)">|</text><text font-family="KaiTi,KaiTi_MSFontService,Arial" font-weight="400" font-size="16" transform="translate(412.125 331)">这顿火锅吃的太巴适了，瓜娃子，你觉得咋个样？</text><text font-family="KaiTi,KaiTi_MSFontService,Arial" font-weight="400" font-size="16" transform="translate(764.125 331)">|</text><g><g><g><path d="M7.55512 10.5346C7.55512 11.1344 8.04146 11.6206 8.64118 11.6206 9.24102 11.6206 9.72714 11.1344 9.72714 10.5346 9.72714 9.93476 9.24102 9.44864 8.64118 9.44864 8.04146 9.44867 7.55512 9.93476 7.55512 10.5346L7.55512 10.5346ZM19.6255 3.50115 5.50575 3.50115C4.22806 3.50115 3.17765 4.55061 3.17765 5.84531L3.17765 15.2217C3.17765 16.5164 4.22809 17.5658 5.50575 17.5658L13.0914 17.5658 16.2099 20.7267C16.5719 21.0928 16.9615 21.1428 17.3235 20.7766 17.6855 20.4104 17.552 20.0367 17.19 19.6705L14.2911 16.7145C13.9283 16.3998 13.7243 16.1424 13.1054 16.1484L5.9728 16.1484C4.92692 16.1424 4.6027 15.78 4.58833 14.753L4.58833 6.37758C4.6027 5.50082 5.00319 4.89053 5.9728 4.91874L19.129 4.91874C20.1461 4.90962 20.5466 5.40546 20.5134 6.37758L20.5134 14.753C20.5085 15.761 20.108 16.1424 19.129 16.1484 19.129 16.1484 18.8815 16.14 18.8297 16.14 18.3077 16.14 17.9399 16.3304 17.9399 16.8524 17.9399 17.3744 18.1508 17.5679 18.6728 17.5679 18.6971 17.5679 19.6255 17.5657 19.6255 17.5657 20.9031 17.5657 21.9388 16.5163 21.9388 15.2217L21.9388 5.84531C21.9388 4.55061 20.9031 3.50115 19.6255 3.50115L19.6255 3.50115ZM11.4665 10.5346C11.4665 11.1344 11.9526 11.6206 12.5524 11.6206 13.1523 11.6206 13.6384 11.1344 13.6384 10.5346 13.6384 9.93476 13.1523 9.44864 12.5524 9.44864 11.9526 9.44867 11.4665 9.93476 11.4665 10.5346L11.4665 10.5346ZM16.4637 9.44867C15.864 9.44867 15.3778 9.93479 15.3778 10.5346 15.3778 11.1344 15.864 11.6206 16.4637 11.6206 17.0635 11.6206 17.5498 11.1344 17.5498 10.5346 17.5498 9.93476 17.0635 9.44867 16.4637 9.44867L16.4637 9.44867Z" fill="#272636" transform="matrix(1.04 0 0 1 309 240)"/></g></g></g><g clip-path="url(#clip4)"><g clip-path="url(#clip5)"><g clip-path="url(#clip6)"><path d="M11.9 13.65 4.9 13.65C4.55 13.65 4.2 13.65 3.85 14L0.35 20.65C-4.85723e-16 21 -4.85723e-16 21.7 0.35 22.05L15.75 49 23.45 49 34.65 39.55 11.9 13.65Z" fill="#615CED" transform="matrix(1.01279 0 0 1 817.031 813)"/><path d="M7.35 34.65 3.85 40.6C3.5 40.95 3.5 41.65 3.85 42L7.7 48.65C8.05 49 8.4 49 9.1 49L23.45 49 7.35 34.65ZM48.65 21.35 52.15 15.4C52.5 15.05 52.5 14.35 52.15 14L48.3 7.35C47.95 7 47.6 7 46.9 7L15.75 7 11.9 13.3 14.7 28 48.65 21.35Z" fill="#615CED" transform="matrix(1.01279 0 0 1 817.031 813)"/><path d="M32.55 7 29.05 1.05C29.05 0.35 28.35 0.35 28 0.35L20.3 0.35C19.95 0.35 19.25 0.7 19.25 1.05L15.75 7 11.9 13.3 32.55 7ZM23.45 49 26.95 54.95C27.3 55.3 27.65 55.65 28 55.65L35.7 55.65C36.05 55.65 36.75 55.3 36.75 54.95L52.5 28 48.65 21.35 34.65 16.45 23.45 49Z" fill="#615CED" transform="matrix(1.01279 0 0 1 817.031 813)"/><path d="M44.1 42.35 51.1 42.35C51.45 42.35 52.15 42 52.15 41.65L56 35C56.35 34.65 56.35 33.95 56 33.6L52.5 28 48.65 21.35 44.1 42.35Z" fill="#615CED" transform="matrix(1.01279 0 0 1 817.031 813)"/><path d="M24.15 47.95 9.1 47.95 12.95 41.3 20.65 41.3 5.25 15.05 12.95 15.05 28 41.3 24.15 47.95Z" fill="#FFFFFF" transform="matrix(1.01279 0 0 1 817.031 813)"/><path d="M12.6 15.05 20.3 1.75 24.15 8.4 20.3 14.7 50.75 14.7 46.9 21.35 16.45 21.35 12.6 15.05ZM46.9 21.35 54.6 34.65 46.9 34.65 43.05 28 28 54.25 24.15 47.6 39.2 21.35 46.9 21.35Z" fill="#FFFFFF" transform="matrix(1.01279 0 0 1 817.031 813)"/><path d="M28 41.3 39.2 21.35 16.45 21.35 28 41.3Z" fill="#605BEC" transform="matrix(1.01279 0 0 1 817.031 813)"/><path d="M28 41.3 12.6 15.05 13.3 13.65 28.7 39.9 28 41.3Z" fill="#605BEC" transform="matrix(1.01279 0 0 1 817.031 813)"/><path d="M16.45 21.35 46.9 21.35 47.6 22.75 17.5 22.75 16.45 21.35Z" fill="#605BEC" transform="matrix(1.01279 0 0 1 817.031 813)"/><path d="M39.55 21.35 24.5 47.6 23.1 47.6 38.15 21.35 39.55 21.35Z" fill="#605BEC" transform="matrix(1.01279 0 0 1 817.031 813)"/></g></g></g><path d="M295.5 829.001C295.5 812.708 308.708 799.5 325 799.5L781 799.5C797.292 799.5 810.5 812.708 810.5 829.001L810.5 947C810.5 963.292 797.292 976.5 781 976.5L325 976.5C308.708 976.5 295.5 963.292 295.5 947Z" stroke="#FFD966" stroke-width="1.33333" stroke-miterlimit="8" fill="#FFF2CC" fill-rule="evenodd"/><text font-family="Times New Roman,Times New Roman_MSFontService,Arial" font-weight="400" font-size="16" transform="translate(343.588 832)">response</text><text font-family="KaiTi,KaiTi_MSFontService,Arial" font-weight="400" font-size="16" transform="translate(399.588 832)">:</text><text font-family="Cambria,Cambria_MSFontService,Arial" font-weight="400" font-size="16" transform="translate(323.588 856)">"</text><text font-family="KaiTi,KaiTi_MSFontService,Arial" font-weight="400" font-size="16" transform="translate(329.921 856)">儿豁</text><text font-family="Cambria,Cambria_MSFontService,Arial" font-weight="400" font-size="16" transform="translate(361.921 856)">"</text><text font-family="Cambria,Cambria_MSFontService,Arial" font-weight="400" font-size="16" transform="translate(371.755 856)">is a common slang term in the Sichuan</text><text font-family="Cambria,Cambria_MSFontService,Arial" font-weight="400" font-size="16" transform="translate(633.448 856)">-</text><text font-family="Cambria,Cambria_MSFontService,Arial" font-weight="400" font-size="16" transform="translate(638.781 856)">Chongqing dialect </text><text font-family="Cambria,Cambria_MSFontService,Arial" font-weight="400" font-size="16" transform="translate(323.588 880)">meaning </text><text font-family="Cambria,Cambria_MSFontService,Arial" font-weight="400" font-size="16" transform="translate(386.421 880)">" </text><text font-family="Cambria,Cambria_MSFontService,Arial" font-weight="400" font-size="16" transform="translate(396.255 880)">it‘s true</text><text font-family="Cambria,Cambria_MSFontService,Arial" font-weight="400" font-size="16" transform="translate(452.088 880)">"</text><text font-family="Cambria,Cambria_MSFontService,Arial" font-weight="400" font-size="16" transform="translate(461.921 880)">or </text><text font-family="Cambria,Cambria_MSFontService,Arial" font-weight="400" font-size="16" transform="translate(480.588 880)">" </text><text font-family="Cambria,Cambria_MSFontService,Arial" font-weight="400" font-size="16" transform="translate(490.421 880)">I’m not lying". </text><text font-family="Cambria,Cambria_MSFontService,Arial" font-weight="400" font-size="16" transform="translate(588.768 880)">"</text><text font-family="KaiTi,KaiTi_MSFontService,Arial" font-weight="400" font-size="16" transform="translate(595.101 880)">噻</text><text font-family="Cambria,Cambria_MSFontService,Arial" font-weight="400" font-size="16" transform="translate(611.101 880)">"</text><text font-family="Cambria,Cambria_MSFontService,Arial" font-weight="400" font-size="16" transform="translate(620.935 880)">is a typical sentence</text><text font-family="Cambria,Cambria_MSFontService,Arial" font-weight="400" font-size="16" transform="translate(756.961 880)">-</text><text font-family="Cambria,Cambria_MSFontService,Arial" font-weight="400" font-size="16" transform="translate(762.295 880)">final </text><text font-family="Cambria,Cambria_MSFontService,Arial" font-weight="400" font-size="16" transform="translate(323.588 904)">particle used for emphasis, and replacing it with </text><text font-family="Cambria,Cambria_MSFontService,Arial" font-weight="400" font-size="16" transform="translate(654.328 904)">"</text><text font-family="KaiTi,KaiTi_MSFontService,Arial" font-weight="400" font-size="16" transform="translate(660.661 904)">赛</text><text font-family="Cambria,Cambria_MSFontService,Arial" font-weight="400" font-size="16" transform="translate(676.661 904)">"</text><text font-family="Cambria,Cambria_MSFontService,Arial" font-weight="400" font-size="16" transform="translate(686.495 904)">aligns best with </text><text font-family="Cambria,Cambria_MSFontService,Arial" font-weight="400" font-size="16" transform="translate(323.588 928)">the dialect. Text3 is selected, and </text><text font-family="Cambria,Cambria_MSFontService,Arial" font-weight="400" font-size="16" transform="translate(549.528 928)">"</text><text font-family="SimSun,SimSun_MSFontService,Arial" font-weight="400" font-size="16" transform="translate(555.861 928)">赛</text><text font-family="Cambria,Cambria_MSFontService,Arial" font-weight="400" font-size="16" transform="translate(571.861 928)">"</text><text font-family="Cambria,Cambria_MSFontService,Arial" font-weight="400" font-size="16" transform="translate(581.695 928)">is changed to </text><text font-family="Cambria,Cambria_MSFontService,Arial" font-weight="400" font-size="16" transform="translate(674.388 928)">"</text><text font-family="SimSun,SimSun_MSFontService,Arial" font-weight="400" font-size="16" transform="translate(680.721 928)">噻</text><text font-family="Cambria,Cambria_MSFontService,Arial" font-weight="400" font-size="16" transform="translate(696.721 928)">".</text><text font-family="KaiTi,KaiTi_MSFontService,Arial" font-weight="400" font-size="16" transform="translate(323.588 952)">Fianl</text><text font-family="KaiTi,KaiTi_MSFontService,Arial" font-weight="400" font-size="16" transform="translate(371.588 952)">result</text><text font-family="KaiTi,KaiTi_MSFontService,Arial" font-weight="400" font-size="16" transform="translate(419.588 952)">：</text><text font-family="KaiTi,KaiTi_MSFontService,Arial" font-weight="400" font-size="16" transform="translate(435.588 952)">|</text><text font-family="KaiTi,KaiTi_MSFontService,Arial" font-weight="400" font-size="16" transform="translate(443.588 952)">儿豁，是真的！心里有哈</text><text font-family="KaiTi,KaiTi_MSFontService,Arial" font-weight="400" font-size="16" transform="translate(619.588 952)">数</text><text font-family="KaiTi,KaiTi_MSFontService,Arial" font-weight="400" font-size="16" transform="translate(635.588 952)">噻</text><text font-family="KaiTi,KaiTi_MSFontService,Arial" font-weight="400" font-size="16" transform="translate(651.588 952)">！</text><text font-family="KaiTi,KaiTi_MSFontService,Arial" font-weight="400" font-size="16" transform="translate(675.588 952)">|</text><g><g><g><path d="M7.25291 10.1132C7.25291 10.689 7.7198 11.1558 8.29553 11.1558 8.87138 11.1558 9.33805 10.689 9.33805 10.1132 9.33805 9.53737 8.87138 9.0707 8.29553 9.0707 7.7198 9.07072 7.25291 9.53737 7.25291 10.1132L7.25291 10.1132ZM18.8405 3.3611 5.28552 3.3611C4.05894 3.3611 3.05055 4.36859 3.05055 5.6115L3.05055 14.6128C3.05055 15.8557 4.05896 16.8632 5.28552 16.8632L12.5677 16.8632 15.5615 19.8976C15.9091 20.2491 16.2831 20.2971 16.6305 19.9455 16.9781 19.594 16.8499 19.2352 16.5024 18.8837L13.7195 16.0459C13.3712 15.7438 13.1754 15.4967 12.5812 15.5024L5.73389 15.5024C4.72984 15.4967 4.41859 15.1488 4.4048 14.1629L4.4048 6.12247C4.41859 5.28079 4.80307 4.69491 5.73389 4.72199L18.3638 4.72199C19.3403 4.71324 19.7248 5.18924 19.6929 6.12247L19.6929 14.1629C19.6881 15.1305 19.3037 15.4967 18.3638 15.5024 18.3638 15.5024 18.1263 15.4944 18.0765 15.4944 17.5754 15.4944 17.2223 15.6772 17.2223 16.1784 17.2223 16.6794 17.4247 16.8652 17.9259 16.8652 17.9492 16.8652 18.8405 16.8631 18.8405 16.8631 20.0669 16.8631 21.0613 15.8556 21.0613 14.6128L21.0613 5.6115C21.0613 4.36859 20.0669 3.3611 18.8405 3.3611L18.8405 3.3611ZM11.0078 10.1132C11.0078 10.689 11.4745 11.1558 12.0503 11.1558 12.6262 11.1558 13.0929 10.689 13.0929 10.1132 13.0929 9.53737 12.6262 9.0707 12.0503 9.0707 11.4745 9.07072 11.0078 9.53737 11.0078 10.1132L11.0078 10.1132ZM15.8052 9.07072C15.2295 9.07072 14.7627 9.5374 14.7627 10.1132 14.7627 10.689 15.2295 11.1558 15.8052 11.1558 16.381 11.1558 16.8478 10.689 16.8478 10.1132 16.8478 9.53737 16.381 9.07072 15.8052 9.07072L15.8052 9.07072Z" fill="#272636" transform="matrix(1.04167 0 0 1 309 813)"/></g></g></g><path d="M295.5 397.809C295.5 382.727 307.727 370.5 322.809 370.5L783.191 370.5C798.273 370.5 810.5 382.727 810.5 397.809L810.5 752.191C810.5 767.273 798.273 779.5 783.191 779.5L322.809 779.5C307.727 779.5 295.5 767.273 295.5 752.191Z" stroke="#8FAADC" stroke-width="1.33333" stroke-miterlimit="8" fill="#DAE3F3" fill-rule="evenodd"/><text font-family="Cambria,Cambria_MSFontService,Arial" font-weight="400" font-size="16" transform="translate(340.233 408)">Assume you are a person highly fluent in the Sichuan</text><text font-family="Cambria,Cambria_MSFontService,Arial" font-weight="400" font-size="16" transform="translate(699.593 408)">-</text><text font-family="Cambria,Cambria_MSFontService,Arial" font-weight="400" font-size="16" transform="translate(704.927 408)">Chongqing </text><text font-family="Cambria,Cambria_MSFontService,Arial" font-weight="400" font-size="16" transform="translate(316.233 432)">dialect. I will now provide several ASR transcriptions that were </text><text font-family="Cambria,Cambria_MSFontService,Arial" font-weight="400" font-size="16" transform="translate(316.233 456)">generated without being trained on Sichuan</text><text font-family="Cambria,Cambria_MSFontService,Arial" font-weight="400" font-size="16" transform="translate(615.213 456)">-</text><text font-family="Cambria,Cambria_MSFontService,Arial" font-weight="400" font-size="16" transform="translate(620.547 456)">Chongqing dialect data. </text><text font-family="Cambria,Cambria_MSFontService,Arial" font-weight="400" font-size="16" transform="translate(316.233 480)">Please analyze these transcription candidates and produce a final </text><text font-family="Cambria,Cambria_MSFontService,Arial" font-weight="400" font-size="16" transform="translate(316.233 504)">version.The</text><text font-family="Cambria,Cambria_MSFontService,Arial" font-weight="400" font-size="16" transform="translate(400.253 504)">final result must have the same number of characters as </text><text font-family="Cambria,Cambria_MSFontService,Arial" font-weight="400" font-size="16" transform="translate(316.233 528)">one of the original texts, and you should only correct character</text><text font-family="Cambria,Cambria_MSFontService,Arial" font-weight="400" font-size="16" transform="translate(740.793 528)">-</text><text font-family="Cambria,Cambria_MSFontService,Arial" font-weight="400" font-size="16" transform="translate(746.127 528)">level </text><text font-family="Cambria,Cambria_MSFontService,Arial" font-weight="400" font-size="16" transform="translate(316.233 552)">errors in the text that you believe is closest to Sichuan</text><text font-family="Cambria,Cambria_MSFontService,Arial" font-weight="400" font-size="16" transform="translate(682.253 552)">-</text><text font-family="Cambria,Cambria_MSFontService,Arial" font-weight="400" font-size="16" transform="translate(687.587 552)">Chongqing </text><text font-family="Cambria,Cambria_MSFontService,Arial" font-weight="400" font-size="16" transform="translate(316.233 576)">dialect expression. Your corrections should make the final version </text><text font-family="Cambria,Cambria_MSFontService,Arial" font-weight="400" font-size="16" transform="translate(316.233 600)">more faithful to how the Sichuan</text><text font-family="Cambria,Cambria_MSFontService,Arial" font-weight="400" font-size="16" transform="translate(538.26 600)">-</text><text font-family="Cambria,Cambria_MSFontService,Arial" font-weight="400" font-size="16" transform="translate(543.593 600)">Chongqing dialect is actually </text><text font-family="Cambria,Cambria_MSFontService,Arial" font-weight="400" font-size="16" transform="translate(316.233 624)">spoken.Please</text><text font-family="Cambria,Cambria_MSFontService,Arial" font-weight="400" font-size="16" transform="translate(415.96 624)">analyze the following candidate texts and output the </text><text font-family="Cambria,Cambria_MSFontService,Arial" font-weight="400" font-size="16" transform="translate(316.233 648)">corrected version that best matches the dialect, surrounded by | on </text><text font-family="Cambria,Cambria_MSFontService,Arial" font-weight="400" font-size="16" transform="translate(316.233 672)">both sides :</text><text font-family="KaiTi,KaiTi_MSFontService,Arial" font-weight="400" font-size="16" transform="translate(316.233 720)">text1</text><text font-family="KaiTi,KaiTi_MSFontService,Arial" font-weight="400" font-size="16" transform="translate(356.233 720)">：儿活，是真的！心里有哈数噻！</text><text font-family="KaiTi,KaiTi_MSFontService,Arial" font-weight="400" font-size="16" transform="translate(316.233 744)">text2</text><text font-family="KaiTi,KaiTi_MSFontService,Arial" font-weight="400" font-size="16" transform="translate(356.233 744)">：而活，是真的！心里有哈数筛！</text><text font-family="KaiTi,KaiTi_MSFontService,Arial" font-weight="400" font-size="16" transform="translate(316.233 768)">text3</text><text font-family="KaiTi,KaiTi_MSFontService,Arial" font-weight="400" font-size="16" transform="translate(356.233 768)">：儿豁，是真的！心里有哈数赛！</text><g><g><g><path d="M14.3011 4.26075C14.3411 4.34976 14.3732 4.45356 14.3975 4.57226 14.4223 4.69091 14.4346 4.81454 14.4346 4.94309 14.4346 5.07164 14.4099 5.20011 14.3604 5.32866 14.3108 5.45724 14.2316 5.58087 14.1231 5.69948 14.0044 5.8182 13.8982 5.92198 13.8042 6.01097 13.7102 6.09997 13.6287 6.17909 13.5594 6.24831 13.4804 6.32741 13.4061 6.39666 13.3369 6.45595L10.5631 3.6823C10.6818 3.57353 10.8227 3.44251 10.9858 3.28919 11.149 3.13592 11.285 3.01484 11.3938 2.92581 11.5322 2.81705 11.6756 2.74041 11.824 2.69587 11.9723 2.65141 12.1182 2.63162 12.2615 2.63658 12.4049 2.64156 12.5433 2.66379 12.6769 2.70333 12.8104 2.74288 12.9265 2.78735 13.0254 2.83684 13.2331 2.9457 13.463 3.13599 13.7152 3.40789 13.9673 3.67977 14.1627 3.96413 14.3011 4.26075L14.3011 4.26075ZM2.74598 11.4991C2.80529 11.4398 2.94377 11.2988 3.16128 11.0764 3.37886 10.8538 3.65082 10.5795 3.9771 10.2531L5.05999 9.17042 6.2615 7.96896 9.45065 4.7799 12.2244 7.56842 9.03529 10.7574 7.84864 11.9589C7.45308 12.3445 7.09708 12.6981 6.78064 13.0195 6.46421 13.3409 6.2021 13.6053 5.99446 13.813 5.78677 14.0206 5.66316 14.1393 5.62362 14.169 5.5248 14.258 5.41099 14.3519 5.2825 14.4508 5.15396 14.5497 5.02047 14.6288 4.88198 14.6881 4.74358 14.7574 4.54082 14.8414 4.27378 14.9403 4.00681 15.0391 3.72746 15.1355 3.43572 15.2295 3.14405 15.3235 2.86716 15.4051 2.60504 15.4743 2.34299 15.5434 2.14774 15.588 2.01916 15.6077 1.75211 15.6374 1.57417 15.5978 1.48514 15.4891 1.39615 15.3804 1.37144 15.1974 1.41097 14.9403 1.43076 14.8018 1.47777 14.6017 1.55193 14.3396 1.6261 14.0775 1.70519 13.8056 1.7892 13.5238 1.87329 13.242 1.95484 12.9824 2.034 12.7451 2.1131 12.5078 2.17733 12.3446 2.22681 12.2556 2.28615 12.1172 2.35292 11.9911 2.42706 11.8774 2.50125 11.7636 2.60758 11.6376 2.74598 11.4991L2.74598 11.4991ZM7.69199 14.2966 9.01849 14.2966 9.01849 15.6172 7.69199 15.6172 7.69199 14.2966ZM10.3871 14.2966 11.7136 14.2966 11.7136 15.6172 10.3871 15.6172 10.3871 14.2966ZM13.0929 14.2966 14.4194 14.2966 14.4194 15.6172 13.0929 15.6172 13.0929 14.2966Z" transform="matrix(1 0 0 1.05882 313 389)"/></g></g></g><g><g><g><path d="M37.7874 66.9384C37.5277 66.9384 37.2681 66.8886 37.012 66.7891 35.9413 66.3604 35.422 65.1457 35.847 64.0751 35.8773 64.0004 38.8064 56.5912 39.2902 48.8513 39.4823 45.7674 37.9777 43.4999 36.0694 40.6241 33.6915 37.0386 30.7321 32.5746 30.581 25.2206 30.4689 19.7056 32.459 14.7009 36.3361 10.7456 41.4012 5.57554 49.2995 2.61259 58.0087 2.61259 73.373 2.61259 81.0845 14.4537 81.0845 21.0839L81.0756 23.2839C81.0471 27.6892 81.0863 29.2809 82.0128 30.6752 82.0715 30.7642 87.8196 40.2097 86.9926 43.5052 86.3079 46.244 82.9803 46.068 80.7928 45.9613 80.695 45.9559 80.5865 45.9488 80.478 45.9453 80.2184 47.6241 79.9676 50.8165 79.9676 52.4936 79.9676 53.7812 79.9676 56.4596 78.0735 58.1101 76.9015 59.1345 75.3098 59.5168 73.3445 59.2394 71.1944 58.9442 69.0957 58.8819 67.6747 58.9086L67.3528 64.9608C67.2888 66.1132 66.2946 66.9865 65.1564 66.9367 64.004 66.8726 63.1183 65.8909 63.1805 64.7402L63.6056 56.7762C63.6617 55.7266 64.4888 54.882 65.537 54.8039 65.7024 54.7914 69.6382 54.5122 73.9172 55.1009 74.5984 55.1969 75.123 55.1418 75.3311 54.9586 75.7935 54.5567 75.7935 53.0023 75.7935 52.4918 75.7935 52.4083 75.8113 44.1045 77.3941 42.5146 78.2674 41.6467 79.4216 41.7089 81.008 41.7872 81.4562 41.8121 82.2263 41.853 82.806 41.8299 82.2334 39.8789 79.9569 35.1197 78.5377 32.9908 76.8535 30.4636 76.8677 27.9044 76.8979 23.2572L76.9068 21.0839C76.9068 16.0952 70.4154 6.79024 58.0087 6.79024 50.4164 6.79024 43.6048 9.29612 39.3204 13.6694 36.2472 16.8066 34.6679 20.7727 34.7586 25.137 34.8831 31.2799 37.2574 34.8582 39.5516 38.3174 41.6093 41.4208 43.7382 44.6292 43.459 49.1145 42.9325 57.5427 39.8575 65.3022 39.7277 65.6295 39.4085 66.4207 38.6406 66.9387 37.7874 66.9384Z" fill="#C59D72" transform="matrix(1.00108 0 0 1 202.069 389)"/><path d="M57.2422 44.3535C55.1685 44.3535 53.2815 42.8898 52.5612 40.6632 52.4581 40.343 52.3674 40.0425 52.282 39.7473 51.9316 38.5397 51.6524 37.5882 49.9735 35.1766 48.2822 32.7436 47.9478 29.585 49.1199 27.1307 50.1105 25.0552 52.0348 23.7658 54.4002 23.5933 58.2915 23.307 60.2958 26.2806 60.8223 27.8919 61.1815 28.9875 60.5839 30.1666 59.4866 30.5241 58.4035 30.8886 57.2315 30.2911 56.8616 29.2151 56.7264 28.8398 56.1217 27.6625 54.7061 27.7567 53.8293 27.8225 53.2353 28.2049 52.8902 28.9288 52.362 30.0368 52.5683 31.5876 53.4042 32.7916 55.4726 35.7617 55.8887 37.1934 56.2925 38.5752 56.3672 38.8313 56.4436 39.0928 56.5343 39.372 56.7371 39.9998 57.0341 40.1777 57.2688 40.1741 57.3898 40.1616 57.5996 39.8575 57.6708 39.2422 57.8042 38.0986 58.8304 37.2645 59.9828 37.4068 61.1281 37.5366 61.9516 38.5735 61.8182 39.7188 61.523 42.2994 59.8974 44.1099 57.6797 44.3304 57.5338 44.3446 57.388 44.3535 57.2422 44.3535Z" fill="#C59D72" transform="matrix(1.00108 0 0 1 202.069 389)"/></g></g></g></g></svg>